<svg xmlns="http://www.w3.org/2000/svg" viewBox="0 0 64 64">
  <!-- Background -->
  <rect width="64" height="64" fill="#0d6efd" rx="8"/>
  
  <!-- Medical Document/Clipboard -->
  <rect x="14" y="12" width="28" height="38" rx="2" fill="#f8f9fa" stroke="#2c3e50" stroke-width="1.5"/>
  <rect x="20" y="18" width="16" height="2" rx="1" fill="#6c757d"/>
  <rect x="20" y="24" width="12" height="2" rx="1" fill="#6c757d"/>
  <rect x="20" y="30" width="14" height="2" rx="1" fill="#6c757d"/>
  
  <!-- Heart with Heartbeat -->
  <path d="M 16 28 Q 16 24 19 24 Q 21 24 22 26 Q 23 24 25 24 Q 28 24 28 28 Q 28 32 22 36 Q 16 32 16 28 Z" fill="#ff6b6b" stroke="#c92a2a" stroke-width="1"/>
  <path d="M 17 29 L 19 29 L 20 26 L 21 32 L 22 29 L 24 29" fill="none" stroke="#fff" stroke-width="1.2" stroke-linecap="round" stroke-linejoin="round"/>
  
  <!-- Medical Shield with Cross -->
  <path d="M 46 16 L 52 16 L 54 18 L 54 28 Q 54 34 49 38 Q 44 34 44 28 L 44 18 Z" fill="#e3f2fd" stroke="#1976d2" stroke-width="1.5"/>
  <rect x="47.5" y="22" width="3" height="10" rx="0.5" fill="#1976d2"/>
  <rect x="44" y="25.5" width="10" height="3" rx="0.5" fill="#1976d2"/>
  
  <!-- AI/Tech accent dots -->
  <circle cx="36" cy="44" r="1.5" fill="#ffd93d" opacity="0.8"/>
  <circle cx="40" cy="46" r="1.2" fill="#ffd93d" opacity="0.6"/>
  <circle cx="32" cy="46" r="1" fill="#ffd93d" opacity="0.5"/>
</svg>
